<svg width="24" height="24" viewBox="0 0 24 24" fill="none" xmlns="http://www.w3.org/2000/svg">
<g id="Task Type Icons">
<rect id="Rectangle 3966" x="13" y="14" width="2" height="2" rx="1" fill="#FF6258"/>
<path id="Union" fill-rule="evenodd" clip-rule="evenodd" d="M8 11C7.44772 11 7 11.4477 7 12V13H6C5.44772 13 5 13.4477 5 14C5 14.5523 5.44772 15 6 15H7V16C7 16.5523 7.44772 17 8 17C8.55228 17 9 16.5523 9 16V15H10C10.5523 15 11 14.5523 11 14C11 13.4477 10.5523 13 10 13L9 13V12C9 11.4477 8.55228 11 8 11Z" fill="#FF6258"/>
<rect id="Rectangle 3968" x="16" y="12" width="2" height="2" rx="1" fill="#FF6258"/>
<path id="Union_2" fill-rule="evenodd" clip-rule="evenodd" d="M11 2C11 1.44772 10.5523 1 10 1C9.44772 1 9 1.44772 9 2V2.93845L8.99995 3.02232C8.99962 3.41404 8.99933 3.75491 9.06733 4.07046C9.26049 4.96675 9.8529 5.7255 10.6756 6.13027C10.9652 6.27278 11.296 6.35517 11.6761 6.44985L11.7575 6.47014L11.8172 6.48507C12.2623 6.59635 12.3538 6.62358 12.4179 6.65305C12.5858 6.7303 12.7265 6.85124 12.8274 7H8.5L8.43755 7C7.31796 6.99997 6.38684 6.99994 5.63817 7.09202C4.84929 7.18903 4.14048 7.40001 3.53184 7.90949C3.25556 8.14076 3.01056 8.4086 2.80201 8.7051C2.35163 9.34541 2.16838 10.0801 2.08279 10.9084C1.99997 11.7098 1.99998 12.7124 2 13.9454V13.9454V14V14.0546V14.0546C1.99998 15.2876 1.99997 16.2902 2.08279 17.0916C2.16838 17.9199 2.35163 18.6546 2.80201 19.2949C3.01056 19.5914 3.25556 19.8592 3.53184 20.0905C4.14048 20.6 4.84929 20.811 5.63817 20.908C6.38683 21.0001 7.31794 21 8.43752 21L8.5 21H15.5L15.5625 21C16.6821 21 17.6132 21.0001 18.3618 20.908C19.1507 20.811 19.8595 20.6 20.4682 20.0905C20.7444 19.8592 20.9894 19.5914 21.198 19.2949C21.6484 18.6546 21.8316 17.9199 21.9172 17.0916C22 16.2902 22 15.2876 22 14.0546V14V13.9454C22 12.7124 22 11.7098 21.9172 10.9084C21.8316 10.0801 21.6484 9.34541 21.198 8.7051C20.9894 8.4086 20.7444 8.14076 20.4682 7.90949C19.8595 7.40001 19.1507 7.18903 18.3618 7.09202C17.6132 6.99994 16.682 6.99997 15.5625 7L15.5 7H14.947C14.7655 6.04753 14.1348 5.24133 13.2536 4.83604C12.9967 4.71786 12.7069 4.64564 12.3736 4.56259L12.3023 4.54479L12.2425 4.52986C11.7347 4.40289 11.6308 4.37126 11.5585 4.33572C11.2843 4.2008 11.0868 3.94788 11.0224 3.64912C11.0055 3.57042 11 3.46194 11 2.93845V2ZM14 9H8.5C7.30189 9 6.49453 9.00177 5.8823 9.07706C5.29642 9.14911 5.01488 9.27629 4.8156 9.4431C4.67588 9.56006 4.54852 9.69842 4.43787 9.85573C4.26831 10.0968 4.14159 10.4424 4.0722 11.114C4.00125 11.8005 4 12.6992 4 14C4 15.3008 4.00125 16.1995 4.0722 16.886C4.14159 17.5576 4.26831 17.9032 4.43787 18.1443C4.54852 18.3016 4.67588 18.4399 4.8156 18.5569C5.01488 18.7237 5.29642 18.8509 5.8823 18.9229C6.49453 18.9982 7.30189 19 8.5 19H15.5C16.6981 19 17.5055 18.9982 18.1177 18.9229C18.7036 18.8509 18.9851 18.7237 19.1844 18.5569C19.3241 18.4399 19.4515 18.3016 19.5621 18.1443C19.7317 17.9032 19.8584 17.5576 19.9278 16.886C19.9987 16.1995 20 15.3008 20 14C20 12.6992 19.9987 11.8005 19.9278 11.114C19.8584 10.4424 19.7317 10.0968 19.5621 9.85573C19.4515 9.69842 19.3241 9.56006 19.1844 9.4431C18.9851 9.27629 18.7036 9.14911 18.1177 9.07706C17.5055 9.00177 16.6981 9 15.5 9H14Z" fill="#FF6258"/>
</g>
</svg>
