<svg width="167" height="100" viewBox="0 0 167 100" fill="none" xmlns="http://www.w3.org/2000/svg">
<rect width="167" height="100" rx="10" fill="white"/>
<rect x="0.5" y="0.5" width="166" height="99" rx="9.5" stroke="#1A56C4" stroke-opacity="0.15"/>
<rect x="25" y="26" width="2" height="2" rx="1" fill="#FF6258"/>
<rect x="19" y="23" width="2" height="6" rx="1" fill="#FF6258"/>
<rect x="23" y="25" width="2" height="6" rx="1" transform="rotate(90 23 25)" fill="#FF6258"/>
<rect x="28" y="24" width="2" height="2" rx="1" fill="#FF6258"/>
<path d="M26 20V20C26 19.5833 26 19.3749 25.9655 19.1914C25.8455 18.5546 25.4245 18.0153 24.8358 17.7445C24.6662 17.6665 24.464 17.616 24.0597 17.5149L24 17.5C23.5388 17.3847 23.3082 17.3271 23.1171 17.233C22.5686 16.9631 22.1737 16.4573 22.0449 15.8598C22 15.6515 22 15.4138 22 14.9384V14" stroke="#FF6258" stroke-width="2" stroke-linecap="round"/>
<path d="M15 26C15 23.4412 15 22.1618 15.6199 21.2804C15.7795 21.0535 15.9657 20.8504 16.1737 20.6763C16.9816 20 18.1544 20 20.5 20H27.5C29.8456 20 31.0184 20 31.8263 20.6763C32.0343 20.8504 32.2205 21.0535 32.3801 21.2804C33 22.1618 33 23.4412 33 26C33 28.5588 33 29.8382 32.3801 30.7196C32.2205 30.9465 32.0343 31.1496 31.8263 31.3237C31.0184 32 29.8456 32 27.5 32H20.5C18.1544 32 16.9816 32 16.1737 31.3237C15.9657 31.1496 15.7795 30.9465 15.6199 30.7196C15 29.8382 15 28.5588 15 26Z" stroke="#FF6258" stroke-width="2"/>
<path d="M17.928 83.24C16.776 83.24 15.7947 82.9893 14.984 82.488C14.1733 81.9813 13.552 81.2773 13.12 80.376C12.6933 79.4747 12.48 78.4293 12.48 77.24C12.48 76.0507 12.6933 75.0053 13.12 74.104C13.552 73.2027 14.1733 72.5013 14.984 72C15.7947 71.4933 16.776 71.24 17.928 71.24C19.0747 71.24 20.0533 71.4933 20.864 72C21.68 72.5013 22.3013 73.2027 22.728 74.104C23.1547 75.0053 23.368 76.0507 23.368 77.24C23.368 78.4293 23.1547 79.4747 22.728 80.376C22.3013 81.2773 21.68 81.9813 20.864 82.488C20.0533 82.9893 19.0747 83.24 17.928 83.24ZM17.928 81.648C18.744 81.6587 19.4213 81.48 19.96 81.112C20.504 80.7387 20.912 80.2213 21.184 79.56C21.456 78.8933 21.592 78.12 21.592 77.24C21.592 76.36 21.456 75.592 21.184 74.936C20.912 74.2747 20.504 73.76 19.96 73.392C19.4213 73.024 18.744 72.8373 17.928 72.832C17.112 72.8213 16.432 73 15.888 73.368C15.3493 73.736 14.944 74.2533 14.672 74.92C14.4 75.5867 14.2613 76.36 14.256 77.24C14.2507 78.12 14.384 78.8907 14.656 79.552C14.928 80.208 15.336 80.72 15.88 81.088C16.4293 81.456 17.112 81.6427 17.928 81.648ZM29.9078 83C29.3638 83.1067 28.8304 83.152 28.3078 83.136C27.7851 83.12 27.3184 83.0187 26.9078 82.832C26.4971 82.6453 26.1878 82.352 25.9798 81.952C25.7931 81.5947 25.6918 81.232 25.6758 80.864C25.6651 80.4907 25.6598 80.0693 25.6598 79.6V71.96H27.3398V79.52C27.3398 79.8667 27.3424 80.168 27.3478 80.424C27.3584 80.68 27.4144 80.896 27.5158 81.072C27.7078 81.4027 28.0118 81.592 28.4278 81.64C28.8491 81.6827 29.3424 81.664 29.9078 81.584V83ZM24.0038 75.704V74.36H29.9078V75.704H24.0038ZM37.7934 83V78.752C37.7934 78.416 37.764 78.072 37.7054 77.72C37.652 77.3627 37.5454 77.032 37.3854 76.728C37.2307 76.424 37.0094 76.1787 36.7214 75.992C36.4387 75.8053 36.068 75.712 35.6094 75.712C35.3107 75.712 35.028 75.7627 34.7614 75.864C34.4947 75.96 34.26 76.1173 34.0574 76.336C33.86 76.5547 33.7027 76.8427 33.5854 77.2C33.4734 77.5573 33.4174 77.992 33.4174 78.504L32.3774 78.112C32.3774 77.328 32.524 76.6373 32.8174 76.04C33.1107 75.4373 33.532 74.968 34.0814 74.632C34.6307 74.296 35.2947 74.128 36.0734 74.128C36.6707 74.128 37.172 74.224 37.5774 74.416C37.9827 74.608 38.3107 74.8613 38.5614 75.176C38.8174 75.4853 39.012 75.824 39.1454 76.192C39.2787 76.56 39.3694 76.92 39.4174 77.272C39.4654 77.624 39.4894 77.9333 39.4894 78.2V83H37.7934ZM31.7214 83V71.48H33.2174V77.696H33.4174V83H31.7214ZM45.4051 83.24C44.5465 83.24 43.7918 83.0533 43.1411 82.68C42.4958 82.3013 41.9918 81.776 41.6291 81.104C41.2718 80.4267 41.0931 79.6427 41.0931 78.752C41.0931 77.808 41.2691 76.9893 41.6211 76.296C41.9785 75.6027 42.4745 75.0667 43.1091 74.688C43.7438 74.3093 44.4825 74.12 45.3251 74.12C46.2051 74.12 46.9545 74.3253 47.5731 74.736C48.1918 75.1413 48.6531 75.72 48.9571 76.472C49.2665 77.224 49.3891 78.1173 49.3251 79.152H47.6531V78.544C47.6425 77.5413 47.4505 76.8 47.0771 76.32C46.7091 75.84 46.1465 75.6 45.3891 75.6C44.5518 75.6 43.9225 75.864 43.5011 76.392C43.0798 76.92 42.8691 77.6827 42.8691 78.68C42.8691 79.6293 43.0798 80.3653 43.5011 80.888C43.9225 81.4053 44.5305 81.664 45.3251 81.664C45.8478 81.664 46.2985 81.5467 46.6771 81.312C47.0611 81.072 47.3598 80.7307 47.5731 80.288L49.2131 80.808C48.8771 81.5813 48.3678 82.1813 47.6851 82.608C47.0025 83.0293 46.2425 83.24 45.4051 83.24ZM42.3251 79.152V77.848H48.4931V79.152H42.3251ZM51.12 83V74.36H52.608V76.456L52.4 76.184C52.5067 75.9067 52.6453 75.6533 52.816 75.424C52.9867 75.1893 53.184 74.9973 53.408 74.848C53.6267 74.688 53.8693 74.5653 54.136 74.48C54.408 74.3893 54.6853 74.336 54.968 74.32C55.2507 74.2987 55.5227 74.312 55.784 74.36V75.928C55.5013 75.8533 55.1867 75.832 54.84 75.864C54.4987 75.896 54.184 76.0053 53.896 76.192C53.624 76.368 53.408 76.5813 53.248 76.832C53.0933 77.0827 52.9813 77.3627 52.912 77.672C52.8427 77.976 52.808 78.2987 52.808 78.64V83H51.12Z" fill="black"/>
</svg>
