<svg width="18" height="22" viewBox="0 0 18 22" fill="none" xmlns="http://www.w3.org/2000/svg">
<path d="M16.4215 12.084C16.3848 12.0554 16.3419 12.0323 16.239 12.0137C16.2341 12.0128 16.229 12.0119 16.2238 12.0111C16.1981 12.0068 16.1689 12.0027 16.1356 11.9989C16.1195 11.9971 16.1023 11.9953 16.0842 11.9936C16.0374 11.9891 15.9835 11.985 15.9212 11.9813C15.8499 11.9769 15.7676 11.9731 15.6721 11.9696C15.6349 11.9682 15.5957 11.9669 15.5544 11.9657C15.5466 11.9654 15.5388 11.9652 15.5309 11.965C15.51 11.9644 15.4886 11.9638 15.4666 11.9632C15.2167 11.9566 14.8968 11.9519 14.4849 11.9485C14.143 11.9457 13.7378 11.9438 13.2566 11.9427C13.2506 11.9427 13.2445 11.9427 13.2385 11.9427C12.9401 11.942 12.6126 11.9416 12.2531 11.9414V11.7806V11.7107V11.0887L12.9146 11.004L13.0523 10.9863L13.0661 10.9846L13.0685 10.9842L14.0019 10.8647L14.3206 10.8239L14.4783 10.823V10.8037L14.5934 10.7889L14.931 10.7457L15.2653 10.7029L15.4335 10.6813L15.5331 10.6686L15.5579 10.6654L15.5592 10.6652L15.6721 10.6508V10.823V10.8647H16.0842C16.1368 10.8647 16.1873 10.8661 16.2361 10.8688L16.4418 11.0281L16.4215 12.084ZM16.4215 12.084L16.4218 12.084C16.4558 12.113 16.484 12.1427 16.5061 12.1723C16.5068 12.1732 16.5074 12.174 16.508 12.1749C16.5598 12.2453 16.577 12.3148 16.5542 12.372M16.4215 12.084L16.4219 12.0835L16.9424 11.4155L16.973 11.4392L17.1597 11.5838L17.1603 11.5842L17.6562 11.968C17.7148 12.1488 17.7328 12.3336 17.7118 12.512L17.096 12.5757L16.5542 12.372M16.5542 12.372C16.5456 12.3949 16.521 12.4141 16.4493 12.4301C16.4464 12.4307 16.4434 12.4314 16.4403 12.432C16.4324 12.4336 16.424 12.4352 16.4151 12.4368L16.4135 12.5204L16.411 12.6465L16.477 12.6397L16.5436 12.6328L16.5513 12.632L17.0723 12.5781L16.5542 12.372ZM9.00805 11.9432V11.8491L9.01563 11.8526L9.03635 11.8621L9.03874 11.8632L9.19973 11.937L9.20255 11.943C9.14827 11.9431 9.09357 11.9431 9.03845 11.9432C9.03769 11.9432 9.03692 11.9432 9.03616 11.9432C9.02933 11.9432 9.02248 11.9432 9.01563 11.9432C9.0131 11.9432 9.01058 11.9432 9.00805 11.9432ZM9.00805 11.9432L9.00795 11.8491L9.00309 11.8469L9.00193 11.9432C9.00397 11.9432 9.00601 11.9432 9.00805 11.9432ZM17.0417 11.288L17.1087 11.202C17.1216 11.2128 17.1344 11.2239 17.1472 11.2354C17.2099 11.2912 17.2723 11.3542 17.3361 11.425C17.3955 11.4905 17.4478 11.5586 17.4932 11.6285L17.2848 11.4714L17.2847 11.4712L17.0785 11.3158L17.0417 11.288ZM17.3163 12.6585L17.6938 12.6219C17.6822 12.6766 17.6668 12.7304 17.6478 12.7831L17.3163 12.6585ZM17.2825 12.6617L17.64 12.8039C17.5309 13.089 17.3118 13.3385 16.9902 13.5009C16.9754 13.5085 16.9612 13.5159 16.9477 13.5231C16.8696 13.5644 16.8136 13.5985 16.7717 13.639C16.75 13.66 16.7321 13.6828 16.7169 13.7092C16.6764 13.7797 16.6553 13.8761 16.6328 14.0347C16.6325 14.0365 16.6322 14.0384 16.632 14.0402C16.6278 14.0695 16.6236 14.101 16.6192 14.1348C16.5788 14.4781 16.5135 14.815 16.4255 15.1423L16.3636 15.1143L16.3829 14.1069L16.383 14.104L16.3846 14.0209L16.3847 14.0166L16.391 13.6854L16.4057 12.9255L16.4091 12.7462L16.5277 12.7348L16.5928 12.7285L16.5997 12.7278L17.2825 12.6617ZM16.3615 15.2216L16.3988 15.2387C16.3967 15.2463 16.3945 15.2538 16.3923 15.2613L16.361 15.2477L16.3615 15.2216ZM16.36 15.3014L16.3783 15.3095C16.3718 15.3314 16.3652 15.3533 16.3586 15.3751L16.36 15.3014ZM15.1314 13.5936L14.9557 13.5808L14.9429 13.5798L14.4943 13.5471L13.5582 13.4789L13.5373 13.4774L12.5828 13.4078L12.2531 13.259V13.1483L13.4507 13.0324L13.4702 13.0306L14.4907 12.9318L15.5512 12.8292L15.6721 12.8175L15.8037 12.8048L15.8059 12.8046L15.7822 12.8322L15.6721 12.961L15.5502 13.1037L15.1314 13.5936ZM12.2531 13.3374L12.3733 13.3925L12.2531 13.3837V13.3374ZM13.4354 12.954L12.2531 13.0763V12.5012C12.654 12.5015 13.0176 12.5016 13.3472 12.5012C13.3536 12.5012 13.3599 12.5012 13.3663 12.5012C13.7953 12.5007 14.1667 12.4996 14.4882 12.4978C14.9309 12.4952 15.2789 12.4912 15.5525 12.4855C15.5941 12.4846 15.6339 12.4837 15.6721 12.4827C15.8389 12.4785 15.9743 12.4735 16.0842 12.4676C16.0876 12.4675 16.091 12.4673 16.0944 12.4671L16.0842 12.479L15.8955 12.6998L15.6721 12.7228L15.5515 12.7353L14.4902 12.845L13.4548 12.952L13.4354 12.954ZM9.06991 11.6622L9.16595 11.8655L9.03895 11.8082L9.03648 11.8071L9.01563 11.7977L9.00805 11.7942V11.7876L9.01563 11.7722L9.03666 11.7296L9.03926 11.7243L9.06991 11.6622ZM9.00788 11.7879L9.00789 11.7942L9.00537 11.793L9.00788 11.7879ZM9.54167 12.8284L9.59452 13.1899L9.10167 13.154L9.03803 13.1494L9.03396 13.1491L9.03334 13.149L9.01563 13.1477L9.00935 13.1473L9.00805 13.1472L8.9999 13.1466L8.98752 13.1457L8.98755 13.1428L8.98876 13.042L8.98931 12.9961L8.99092 12.8621L8.99532 12.4951C8.99685 12.4951 8.99837 12.4951 8.9999 12.4951C9.00262 12.4951 9.00533 12.4951 9.00805 12.4951C9.00825 12.4951 9.00845 12.4951 9.00865 12.4951C9.01097 12.4951 9.0133 12.4951 9.01563 12.4951C9.02205 12.4952 9.02846 12.4952 9.03487 12.4952C9.03538 12.4952 9.03589 12.4952 9.03639 12.4952C9.18165 12.4955 9.32411 12.4959 9.46382 12.4962L9.50626 12.5861L9.53479 12.7813L9.54167 12.8284ZM8.84422 13.1242L8.84392 13.1352L8.76293 13.1293L8.66854 13.1224L8.36073 13.1L8.37865 13.0637L8.65962 12.494L8.85148 12.4946L8.86154 12.4947L8.86086 12.5194L8.8462 13.0525L8.84495 13.0976L8.84422 13.1242ZM5.69937 11.951C5.71472 11.951 5.73011 11.9509 5.74554 11.9508V11.9221L5.6833 11.9301L5.69937 11.951ZM5.67785 11.9308L5.69331 11.9511C5.63226 11.9514 5.57176 11.9517 5.5118 11.9521L5.67785 11.9308ZM5.74554 12.8532V12.9093L4.25413 12.8006L3.48245 12.7444L3.30353 12.5654L3.21458 12.4765L3.87754 12.4786L4.25413 12.4798L5.74554 12.4846V12.7214V12.8532ZM2.33909 12.4737L2.43053 12.6677L1.9773 12.6346L1.9706 12.6341L1.94727 12.6324L1.93741 12.6317L1.94253 12.6229L2.03007 12.4727L2.06179 12.4728L2.06817 12.4728L2.33909 12.4737ZM1.89303 12.6117L1.88345 12.6278L1.87911 12.6275L1.8113 12.6225L1.72091 12.6159L1.78611 12.5507L1.82556 12.5113L1.83935 12.4975L1.86472 12.4721L1.86747 12.4721L1.97589 12.4725L1.91694 12.5715L1.89303 12.6117Z" fill="#990099" stroke="#990099" stroke-width="36"/>
<path d="M7.21179 5.75777C6.96475 5.85658 6.89858 6.13622 7.05519 6.37486C7.22018 6.62189 7.51661 6.64705 7.70585 6.43265C7.88762 6.22664 7.87923 6.03743 7.68161 5.83979C7.49984 5.65801 7.47561 5.65057 7.21179 5.75777ZM8.76013 5.81463C8.62869 5.90598 8.58768 6.0048 8.60352 6.19402C8.65293 6.72161 9.41171 6.65544 9.41171 6.12783C9.41171 5.80715 9.03234 5.61702 8.76013 5.81463ZM10.3336 5.80718C10.013 6.02903 10.177 6.58088 10.5564 6.58088C10.754 6.58088 10.9768 6.32547 10.9768 6.10361C10.9768 5.95539 10.7046 5.6748 10.5648 5.6748C10.5396 5.6748 10.4325 5.7326 10.3336 5.80718ZM7.05527 7.03391C6.78308 7.44593 7.22026 7.89056 7.63973 7.6193C7.8877 7.45431 7.91192 7.15788 7.69753 6.96864C7.47567 6.77102 7.21186 6.79527 7.05527 7.03391ZM8.68656 6.9267C8.52995 7.08331 8.57097 7.44593 8.7602 7.6193C8.9168 7.75912 8.95036 7.75912 9.14798 7.64353C9.55161 7.42168 9.45279 6.82788 9.01561 6.82788C8.88417 6.82788 8.74435 6.86984 8.68656 6.9267ZM10.2517 6.9267C10.0783 7.10009 10.1361 7.47108 10.3589 7.6193C10.5481 7.74234 10.5807 7.74234 10.7709 7.6193C10.9844 7.47947 11.0338 7.24829 10.8939 6.98448C10.7951 6.80364 10.4083 6.77103 10.2517 6.9267Z" fill="#990099"/>
</svg>
